<?xml version="1.0" encoding="utf-8"?>
<!-- Generator: Adobe Illustrator 19.2.1, SVG Export Plug-In . SVG Version: 6.00 Build 0)  -->
<svg xmlns="http://www.w3.org/2000/svg" xmlns:xlink="http://www.w3.org/1999/xlink" version="1.1" id="Layer" x="0px" y="0px" width="512" height="512" viewBox="0 0 64 64" enable-background="new 0 0 64 64" xml:space="preserve">
<path fill="#CCE4FF" d="M32,10c-12.15,0-22,9.85-22,22c0,12.15,9.85,22,22,22s22-9.85,22-22C54,19.85,44.15,10,32,10z M36,36l-11,3  l3-11l11-3L36,36z"/>
<path fill="#007AFF" d="M34,8.09V8h-4v0.09C18.36,9.056,9.056,18.36,8.09,30H8v4h0.09C9.056,45.64,18.36,54.944,30,55.91V56h4v-0.09  C45.64,54.944,54.944,45.64,55.91,34H56v-4h-0.09C54.944,18.36,45.64,9.056,34,8.09z M34,51.899V46h-4v5.899  C20.566,50.958,13.042,43.434,12.101,34H18v-4h-5.899C13.042,20.566,20.566,13.042,30,12.101V18h4v-5.899  C43.434,13.042,50.958,20.566,51.899,30H46v4h5.899C50.958,43.434,43.434,50.958,34,51.899z"/>
<path fill="#007AFF" d="M22.149,41.851l15.479-4.222l4.222-15.479l-15.479,4.222L22.149,41.851z M29.629,29.629l6.521-1.778  l-1.778,6.521l-6.521,1.778L29.629,29.629z"/>
</svg>
